<svg width="39" height="34" viewBox="0 0 39 34" fill="none" xmlns="http://www.w3.org/2000/svg">
<path d="M2.26973 20.219C0.413159 20.219 -0.645023 22.2687 0.432169 23.7487C4.62054 29.5139 11.5462 33.2728 19.3717 33.2728C27.1972 33.2728 34.1166 29.5077 38.3049 23.7487C39.3821 22.2687 38.324 20.219 36.4674 20.219H2.26973Z" fill="white"/>
<path d="M13.1432 11.4937H1.94046V6.01957C1.94046 2.99763 4.44968 0.54541 7.54185 0.54541C10.634 0.54541 13.1432 2.99763 13.1432 6.01957V11.4937Z" fill="white"/>
<path d="M36.803 11.4937H25.6002V6.01957C25.6002 2.99763 28.1094 0.54541 31.2016 0.54541C34.2938 0.54541 36.803 2.99763 36.803 6.01957V11.4937Z" fill="white"/>
</svg>
